<?xml version="1.0" standalone="no"?>
<!DOCTYPE svg PUBLIC "-//W3C//DTD SVG 20010904//EN"
 "http://www.w3.org/TR/2001/REC-SVG-20010904/DTD/svg10.dtd">
<svg version="1.0" xmlns="http://www.w3.org/2000/svg"
 width="718.000000pt" height="427.000000pt" viewBox="0 0 718.000000 427.000000"
 preserveAspectRatio="xMidYMid meet">
<metadata>
Created by potrace 1.16, written by Peter Selinger 2001-2019
</metadata>
<g transform="translate(0.000000,427.000000) scale(0.100000,-0.100000)"
fill="#000000" stroke="none">
<path d="M35 2130 c0 -1158 1 -1631 2 -1052 2 578 2 1526 0 2105 -1 578 -2
105 -2 -1053z"/>
<path d="M320 2131 l0 -1959 73 -4 c39 -2 662 -1 1382 2 721 3 1246 6 1168 8
-80 1 -143 6 -143 11 0 13 34 23 53 15 15 -5 15 -2 6 25 -6 17 -15 31 -19 31
-11 0 -50 -54 -50 -69 0 -6 -7 -11 -16 -11 -11 0 -14 6 -9 20 4 13 1 22 -9 26
-24 9 -19 26 5 19 15 -5 19 -4 15 4 -9 14 -43 14 -52 -1 -4 -6 1 -17 11 -24
10 -8 16 -17 12 -20 -4 -4 -13 -1 -22 6 -18 15 -20 -1 -3 -18 9 -9 -252 -12
-1187 -10 l-1200 3 -2 1940 c-2 1801 -1 1941 14 1953 15 11 15 12 -5 12 l-22
0 0 -1959z"/>
<path d="M2972 4085 c2 -3 822 -5 1821 -5 1326 0 1817 -3 1817 -12 0 -7 14 -8
43 -3 23 4 74 11 112 14 39 4 -800 8 -1864 9 -1064 1 -1932 0 -1929 -3z"/>
<path d="M6840 3107 l0 -987 -27 -1 -28 -1 25 -7 25 -7 3 -697 c2 -659 1 -697
-15 -697 -17 -1 -17 -1 0 -14 15 -12 17 -37 17 -265 l0 -251 -762 2 -763 3 -3
36 c-3 35 13 61 115 184 9 10 21 28 27 40 31 58 99 134 136 150 22 10 40 22
40 27 0 4 -17 0 -38 -11 -45 -23 -104 -86 -152 -161 -19 -30 -60 -85 -92 -123
-50 -58 -58 -73 -58 -107 l0 -40 -1102 -3 c-607 -1 -255 -2 782 -2 l1885 0 3
1949 c1 1293 -1 1953 -8 1960 -7 7 -10 -317 -10 -977z"/>
<path d="M543 3234 c-7 -3 -13 -17 -13 -30 0 -24 0 -24 109 -24 101 0 110 -2
116 -20 8 -25 23 -26 21 -2 -1 13 8 18 37 20 32 3 37 7 37 28 0 24 -1 24 -89
24 -48 0 -115 2 -147 5 -32 2 -65 2 -71 -1z"/>
<path d="M1160 3205 l0 -25 320 0 320 0 0 25 0 25 -320 0 -320 0 0 -25z"/>
</g>
</svg>
