<?xml version="1.0" encoding="UTF-8"?>
<!DOCTYPE svg PUBLIC "-//W3C//DTD SVG 1.1//EN" "http://www.w3.org/Graphics/SVG/1.1/DTD/svg11.dtd">
<!-- Creator: CorelDRAW 2021 (64-Bit) -->
<svg xmlns="http://www.w3.org/2000/svg" xml:space="preserve" width="779.135mm" height="262.308mm" version="1.1" style="shape-rendering:geometricPrecision; text-rendering:geometricPrecision; image-rendering:optimizeQuality; fill-rule:evenodd; clip-rule:evenodd"
viewBox="0 0 77913.48 26230.83"
 xmlns:xlink="http://www.w3.org/1999/xlink"
 xmlns:xodm="http://www.corel.com/coreldraw/odm/2003">
 <defs>
  <style type="text/css">
   <![CDATA[
    .fil0 {fill:#247209}
    .fil1 {fill:#247209;fill-rule:nonzero}
   ]]>
  </style>
 </defs>
 <g id="Layer_x0020_1">
  <metadata id="CorelCorpID_0Corel-Layer"/>
  <g id="_2530625715088">
   <path class="fil0" d="M17594.6 15859l-1780.75 0 -2424.17 0 -49.85 0 -2619.71 0 0 2142.56 3856.72 0 405.92 703.07 1071.47 1855.83 3054.5 5290.56 219.28 379.81 2359.21 0c309.33,-193.11 611.23,-398.18 904.79,-614.51 623.18,-459.21 1207.45,-968.19 1746.94,-1521.05 1639.93,-1680.56 2866.16,-3766.66 3514.11,-6093.71 193.29,-694.2 335.12,-1409.85 421.11,-2142.56 64.35,-548.22 97.43,-1106 97.43,-1671.52 0,-104.01 -1.12,-207.76 -3.34,-311.24 -15.69,-729.06 -86.38,-1444.56 -208.07,-2142.56 -118.35,-678.71 -284.92,-1340.85 -496.06,-1982.75 -244.46,-743.21 -548.67,-1459.28 -906.94,-2142.56 -2371.54,-4522.83 -7111.96,-7608.36 -12573.05,-7608.36 -5461.09,0 -10201.52,3085.53 -12573.06,7608.36 -358.27,683.28 -662.48,1399.35 -906.94,2142.56 -211.14,641.9 -377.71,1304.04 -496.05,1982.75 -121.7,698 -192.39,1413.5 -208.08,2142.56 1906.29,0 3812.57,0 5718.86,0 414.87,138.52 716.06,531.48 716.06,991.38l0 0.01 0 3133.93 0 6093.71 0 2135.56 2142.59 0 0 -2135.56 0 -6093.71 0 -3133.94c0,-459.9 301.19,-852.86 716.06,-991.38l710.45 0 716.09 0 1474.98 0 313.45 0 2160.56 0 64.62 0 1772.7 0 2176.33 0c271.39,-275.64 438.84,-653.9 438.84,-1071.28 0,-417.37 -167.45,-795.64 -438.84,-1071.28l-2176.33 0 -1772.7 0 -1301.63 0 -923.55 0 -1550.46 0 -237.97 0 -991.37 0 -159.89 0c-346.03,0 -679.43,56.84 -991.34,161.64 -398.33,133.84 -761.6,345.92 -1071.3,617.74 -309.7,-271.82 -672.96,-483.9 -1071.29,-617.74 -311.91,-104.8 -645.31,-161.64 -991.34,-161.64l-159.89 0 -991.37 0 -1874.06 0 -192.09 0c139.5,-683.43 336.12,-1346.09 584.66,-1982.75 294.13,-753.47 660.98,-1470.52 1091.9,-2142.56 124.58,-194.27 254.51,-384.79 389.59,-571.32 2217.44,-3062.24 5821.98,-5054.28 9891.81,-5054.28 4317.73,0 8111.79,2242.13 10281.39,5625.6 430.93,672.04 797.77,1389.09 1091.91,2142.56 248.53,636.66 445.15,1299.32 584.65,1982.75 141.77,694.55 224.55,1410.55 242.87,2142.56 2.58,103.44 3.89,207.18 3.89,311.24 0,567.04 -38.67,1125.04 -113.52,1671.52 -100.96,737.2 -267.77,1453.42 -494.28,2142.56 -608.74,1852 -1648.75,3508.33 -3001.22,4850.16 -372.6,369.68 -768.92,715.47 -1186.45,1034.93 -92.61,70.84 -186.26,140.39 -280.92,208.62l-743.4 0 -35.94 -62.25 -2192.23 -3797.06 -1274.71 -2207.86 -15.33 -26.54 -17.28 -29.93c184.3,19.78 371.48,29.93 561.03,29.93 1728.66,0 3260.19,-844.07 4204.91,-2142.56 623.74,-857.31 991.68,-1912.7 991.68,-3054.04 0,-1141.33 -367.94,-2196.72 -991.68,-3054.03 -944.72,-1298.49 -2476.25,-2142.56 -4204.91,-2142.56l-6544.25 0 -330.23 0 -2142.6 0 0 1.03c-271.39,275.64 -438.84,653.91 -438.84,1071.28 0,417.37 167.45,795.64 438.84,1071.28l0 -1.03 1235.82 0 906.78 0 1567.24 0 1102.32 0 4204.92 0c1686.69,0 3054.03,1367.34 3054.03,3054.03 0,1686.7 -1367.34,3054.04 -3054.03,3054.04z"/>
   <path class="fil1" d="M34691.37 13956.43l0 -7569.75 3347.72 0c348.31,0 669.92,72.86 964.89,218.59 294.97,145.7 549.07,337.6 762.31,575.72 213.25,238.09 380.27,508.21 501.09,810.27 120.85,302.09 181.24,605.95 181.24,911.58 0,490.42 -122.59,936.43 -367.84,1338.03 -245.2,401.57 -577.49,691.22 -996.85,868.92l1727.2 2846.64 -1652.56 0 -1545.92 -2537.46 -1449.99 0 0 2537.46 -1471.29 0zm1471.29 -3827.51l1844.47 0c135.02,0 261.19,-32 378.5,-95.97 117.27,-63.97 218.55,-151.01 303.82,-261.19 85.31,-110.19 152.82,-239.9 202.58,-389.17 49.75,-149.24 74.63,-309.18 74.63,-479.75 0,-177.69 -28.42,-341.18 -85.3,-490.45 -56.85,-149.24 -133.26,-278.99 -229.23,-389.13 -95.93,-110.18 -206.12,-195.49 -330.47,-255.88 -124.4,-60.42 -250.56,-90.62 -378.5,-90.62l-1780.5 0 0 2452.16zm7900.22 3934.11c-454.87,0 -863.56,-78.18 -1226.08,-234.54 -362.48,-156.36 -669.88,-367.83 -922.21,-634.38 -252.34,-266.54 -446.01,-573.95 -581.08,-922.21 -135.02,-348.27 -202.57,-714.33 -202.57,-1098.14 0,-390.94 67.55,-760.54 202.57,-1108.81 135.07,-348.27 328.74,-655.71 581.08,-922.22 252.33,-266.54 559.73,-478.01 922.21,-634.37 362.52,-156.36 771.21,-234.58 1226.08,-234.58 454.91,0 861.83,78.22 1220.76,234.58 358.94,156.36 664.57,367.83 916.9,634.37 252.34,266.51 446.01,573.95 581.04,922.22 135.06,348.27 202.57,717.87 202.57,1108.81 0,383.81 -67.51,749.87 -202.57,1098.14 -135.03,348.26 -326.93,655.67 -575.72,922.21 -248.75,266.55 -554.39,478.02 -916.9,634.38 -362.48,156.36 -771.17,234.54 -1226.08,234.54zm-1460.62 -2889.27c0,248.75 37.32,474.43 111.96,677.01 74.6,202.57 177.65,378.49 309.17,527.73 131.48,149.27 286.07,264.77 463.77,346.49 177.69,81.77 369.6,122.63 575.72,122.63 206.12,0 398.06,-40.86 575.72,-122.63 177.7,-81.72 332.32,-197.22 463.8,-346.49 131.48,-149.24 234.54,-326.93 309.18,-533.09 74.64,-206.12 111.96,-433.57 111.96,-682.32 0,-241.67 -37.32,-465.58 -111.96,-671.69 -74.64,-206.12 -177.7,-383.82 -309.18,-533.05 -131.48,-149.28 -286.1,-264.77 -463.8,-346.54 -177.66,-81.72 -369.6,-122.58 -575.72,-122.58 -206.12,0 -398.03,42.63 -575.72,127.94 -177.7,85.26 -332.29,202.57 -463.77,351.81 -131.52,149.27 -234.57,326.97 -309.17,533.08 -74.64,206.12 -111.96,430.03 -111.96,671.7zm10533.66 2782.67l-1428.66 0 0 -3134.52c0,-447.78 -78.18,-774.75 -234.54,-980.87 -156.4,-206.12 -373.18,-309.18 -650.35,-309.18 -142.15,0 -287.88,28.42 -437.16,85.31 -149.23,56.84 -289.61,136.79 -421.13,239.89 -131.48,103.06 -250.52,225.64 -357.16,367.79 -106.6,142.19 -184.78,298.55 -234.54,469.12l0 3262.46 -1428.65 0 0 -5586.68 1290.04 0 0 1034.17c206.12,-355.39 504.67,-632.6 895.57,-831.59 390.94,-199.03 831.63,-298.55 1322.05,-298.55 348.26,0 632.6,63.97 852.93,191.91 220.33,127.94 390.94,295 511.75,501.12 120.85,206.12 204.35,440.66 250.56,703.66 46.18,263 69.29,529.5 69.29,799.63l0 3486.33zm7644.38 -874.27l3113.18 -3710.2 -2985.24 0 0 -1002.21 4488.53 0 0 874.23 -3091.88 3710.24 3145.18 0 0 1002.21 -4669.77 0 0 -874.27zm8060.12 980.87c-454.87,0 -863.56,-78.18 -1226.07,-234.54 -362.48,-156.36 -669.89,-367.83 -922.22,-634.38 -252.33,-266.54 -446.01,-573.95 -581.07,-922.21 -135.03,-348.27 -202.58,-714.33 -202.58,-1098.14 0,-390.94 67.55,-760.54 202.58,-1108.81 135.06,-348.27 328.74,-655.71 581.07,-922.22 252.33,-266.54 559.74,-478.01 922.22,-634.37 362.51,-156.36 771.2,-234.58 1226.07,-234.58 454.91,0 861.83,78.22 1220.77,234.58 358.93,156.36 664.56,367.83 916.9,634.37 252.33,266.51 446.01,573.95 581.03,922.22 135.06,348.27 202.58,717.87 202.58,1108.81 0,383.81 -67.52,749.87 -202.58,1098.14 -135.02,348.26 -326.93,655.67 -575.72,922.21 -248.75,266.55 -554.38,478.02 -916.9,634.38 -362.48,156.36 -771.17,234.54 -1226.08,234.54zm-1460.61 -2889.27c0,248.75 37.31,474.43 111.95,677.01 74.6,202.57 177.66,378.49 309.18,527.73 131.48,149.27 286.07,264.77 463.76,346.49 177.7,81.77 369.61,122.63 575.72,122.63 206.12,0 398.07,-40.86 575.72,-122.63 177.7,-81.72 332.33,-197.22 463.81,-346.49 131.48,-149.24 234.54,-326.93 309.17,-533.09 74.64,-206.12 111.96,-433.57 111.96,-682.32 0,-241.67 -37.32,-465.58 -111.96,-671.69 -74.63,-206.12 -177.69,-383.82 -309.17,-533.05 -131.48,-149.28 -286.11,-264.77 -463.81,-346.54 -177.65,-81.72 -369.6,-122.58 -575.72,-122.58 -206.11,0 -398.02,42.63 -575.72,127.94 -177.69,85.26 -332.28,202.57 -463.76,351.81 -131.52,149.27 -234.58,326.97 -309.18,533.08 -74.64,206.12 -111.95,430.03 -111.95,671.7zm10533.65 2782.67l-1428.65 0 0 -3134.52c0,-447.78 -78.18,-774.75 -234.54,-980.87 -156.4,-206.12 -373.19,-309.18 -650.36,-309.18 -142.15,0 -287.88,28.42 -437.15,85.31 -149.24,56.84 -289.62,136.79 -421.14,239.89 -131.48,103.06 -250.52,225.64 -357.16,367.79 -106.6,142.19 -184.78,298.55 -234.54,469.12l0 3262.46 -1428.65 0 0 -5586.68 1290.05 0 0 1034.17c206.11,-355.39 504.66,-632.6 895.56,-831.59 390.94,-199.03 831.64,-298.55 1322.05,-298.55 348.27,0 632.6,63.97 852.93,191.91 220.33,127.94 390.94,295 511.75,501.12 120.86,206.12 204.35,440.66 250.57,703.66 46.17,263 69.28,529.5 69.28,799.63l0 3486.33zm-21227.22 106.6c-383.85,0 -737.43,-74.6 -1060.86,-223.87 -323.39,-149.28 -602.37,-355.4 -836.91,-618.4 -234.58,-262.96 -417.59,-570.36 -549.07,-922.21 -131.52,-351.85 -197.26,-730.31 -197.26,-1135.46 0,-405.15 63.97,-783.61 191.91,-1135.46 127.93,-351.85 303.86,-657.48 527.77,-916.9 223.87,-259.42 488.64,-463.76 794.28,-613.04 305.63,-149.27 636.14,-223.91 991.53,-223.91 419.36,0 792.51,97.75 1119.44,293.2 326.97,195.48 582.85,460.22 767.67,794.31l0 -916.9 1428.65 0 0 5512.04 -1428.65 0 0 -906.24c-184.82,319.85 -421.14,568.64 -709.02,746.29 -287.84,177.7 -634.37,266.55 -1039.48,266.55zm1748.5 -3475.66c-127.94,-326.97 -321.66,-591.74 -581.08,-794.28 -259.42,-202.57 -545.52,-303.86 -858.24,-303.86 -213.25,0 -410.47,47.95 -591.75,143.92 -181.23,95.97 -337.59,223.91 -469.08,383.81 -131.52,159.95 -232.8,341.18 -303.86,543.76 -71.09,202.57 -106.64,414.01 -106.64,634.33 0,227.46 37.32,442.47 111.96,645.05 74.63,202.57 179.46,378.5 314.53,527.73 135.02,149.28 296.73,266.55 485.1,351.85 188.36,85.3 392.71,127.94 613.04,127.94 319.84,0 595.28,-85.31 826.28,-255.88 230.99,-170.57 417.59,-398.02 559.74,-682.36l0 -1322.01z"/>
   <path class="fil1" d="M34691.37 19844.06l0 -3172.37 616.62 0 0 2631.73 1617.48 0 0 540.64 -2234.1 0zm5409.71 0l0 -3172.37 616.62 0 0 3172.37 -616.62 0zm6665.25 0l0 -2100.04 -817.66 1563.87 -335.09 0 -817.7 -1563.87 0 2100.04 -616.62 0 0 -3172.37 661.3 0 938.31 1805.11 947.25 -1805.11 656.83 0 0 3172.37 -616.62 0zm4078.18 0l0 -3172.37 616.62 0 0 3172.37 -616.62 0zm6450.77 -2631.74l-1014.26 0 0 2631.74 -612.11 0 0 -2631.74 -1014.3 0 0 -540.63 2640.67 0 0 540.63zm5396.35 2091.1l0 540.64 -2202.83 0 0 -3172.37 2162.62 0 0 540.63 -1546 0 0 764.05 1335.99 0 0 500.43 -1335.99 0 0 826.62 1586.21 0zm3282.82 540.64l0 -3172.37 1152.79 0c259.15,0 486.3,41.67 681.4,125.08 195.1,83.42 358.2,196.61 489.26,339.57 131.1,142.99 229.38,310.56 294.93,502.7 65.51,192.1 98.28,396.91 98.28,614.35 0,241.28 -36.51,459.49 -109.49,654.59 -72.94,195.1 -177.97,361.94 -314.99,500.43 -137.03,138.53 -301.59,245.75 -493.73,321.73 -192.14,75.95 -407.34,113.92 -645.66,113.92l-1152.79 0zm2095.57 -1590.67c0,-151.9 -20.83,-291.93 -62.54,-420.02 -41.71,-128.05 -102.75,-238.27 -183.2,-330.63 -80.42,-92.35 -179.47,-163.83 -297.13,-214.47 -117.65,-50.65 -250.94,-75.95 -399.91,-75.95l-536.17 0 0 2091.1 536.17 0c151.93,0 286.73,-26.8 404.38,-80.45 117.66,-53.61 215.98,-127.32 294.89,-221.17 78.95,-93.82 139.26,-204.77 180.97,-332.87 41.71,-128.09 62.54,-266.58 62.54,-415.54z"/>
  </g>
 </g>
</svg>
