<?xml version="1.0" encoding="iso-8859-1"?>
<!-- Generator: Adobe Illustrator 19.0.0, SVG Export Plug-In . SVG Version: 6.00 Build 0)  -->
<svg version="1.1" id="Layer_1" xmlns="http://www.w3.org/2000/svg" xmlns:xlink="http://www.w3.org/1999/xlink" x="0px" y="0px"
	 viewBox="0 0 473.935 473.935" style="enable-background:new 0 0 473.935 473.935;" xml:space="preserve">
<circle style="fill:#EDC92C;" cx="236.967" cy="236.967" r="236.967"/>
<path style="fill:#5B4F3F;" d="M363.286,258.46H261.151v11.895c0,7.873-6.38,14.245-14.256,14.245H224.32
	c-7.869,0-14.245-6.369-14.245-14.245V258.46H107.917l-28.501,57.025h312.387L363.286,258.46z"/>
<polygon style="opacity:0.15;enable-background:new    ;" points="318.916,315.178 235.785,232.036 209.072,258.737 
	220.751,270.423 211.445,279.729 246.629,315.178 "/>
<rect x="79.412" y="315.133" style="fill:#82725A;" width="312.402" height="36.569"/>
<rect x="79.412" y="327.556" style="fill:#58595A;" width="312.402" height="24.15"/>
<path style="fill:#5B4F3F;" d="M209.473,199.123v74.065c0,7.113,6.526,12.883,14.585,12.883h23.079
	c8.075,0,14.608-5.77,14.608-12.883v-74.065c22.806-10.571,38.765-34.432,38.765-62.286c0-37.631-29.07-68.142-64.905-68.142
	c-35.843,0-64.913,30.511-64.913,68.142C170.7,164.691,186.663,188.549,209.473,199.123z"/>
<path style="fill:#82725A;" d="M187.782,138.704c-8.666-8.655,0.842-32.64,9.497-41.298c8.662-8.655,29.635-16.875,38.29-8.217
	C244.23,97.844,196.444,147.367,187.782,138.704z"/>
<g>
</g>
<g>
</g>
<g>
</g>
<g>
</g>
<g>
</g>
<g>
</g>
<g>
</g>
<g>
</g>
<g>
</g>
<g>
</g>
<g>
</g>
<g>
</g>
<g>
</g>
<g>
</g>
<g>
</g>
</svg>
